<svg id="Quizlog_Logo" data-name="Quizlog Logo" xmlns="http://www.w3.org/2000/svg" viewBox="0 0 1000 1000"><defs><style>.cls-1{fill:#e0dcd5;}.cls-2{fill:#f4793c;}</style></defs><path class="cls-1" d="M270.8,451.9v140H244V541.5c-8.6,9-19,13.6-31.2,13.6-13.59,0-25.59-5.2-35.79-15.8-10.4-10.4-15.6-22.8-15.6-37.4s5.2-27,15.6-37.6c10.2-10.4,22.2-15.6,35.79-15.6,13.8,0,25.2,5.6,34.2,17V451.9Zm-35,70.8a29.33,29.33,0,0,0,8.2-20.8,29.8,29.8,0,0,0-8.2-21,27.08,27.08,0,0,0-39.59,0,29.8,29.8,0,0,0-8.2,21,29.33,29.33,0,0,0,8.2,20.8,26.66,26.66,0,0,0,39.59,0Z"/><path class="cls-1" d="M391.2,451.9v100H367.6V541.5c-7.8,9-17.6,13.6-29.4,13.6A46.85,46.85,0,0,1,307,543.5q-13.8-11.7-13.8-27.6v-64H320v61.8q0,7.5,6.6,12.6a24.06,24.06,0,0,0,15.6,5.2,25,25,0,0,0,15.8-5.2q6.6-5.1,6.6-12.6V451.9Z"/><path class="cls-2" d="M418.2,431.5a15.6,15.6,0,0,1,11-26.6,16.08,16.08,0,0,1,11.2,4.6,15.45,15.45,0,0,1,0,22,16.08,16.08,0,0,1-11.2,4.6A15.27,15.27,0,0,1,418.2,431.5Z"/><path class="cls-1" d="M416,451.9h26.6v100H416Z"/><path class="cls-1" d="M547.6,528.3v23.6H462V528.3l49.2-52.8H463.6V451.9h83.2v23.6l-49,52.8Z"/><path class="cls-1" d="M566.2,405.5h26.6V551.9H566.2Z"/><path class="cls-1" d="M627.2,539.5c-10.6-10.4-16-23-16-37.6s5.4-27.2,16-37.6,23.6-15.6,38.6-15.6c15.2,0,28.2,5.2,38.8,15.6s16,23,16,37.6-5.4,27.2-16,37.6-23.6,15.6-38.8,15.6C650.8,555.1,637.8,549.9,627.2,539.5Zm58.4-16.8a29.33,29.33,0,0,0,8.2-20.8,29.8,29.8,0,0,0-8.2-21,27.09,27.09,0,0,0-39.6,0,29.8,29.8,0,0,0-8.2,21,29.33,29.33,0,0,0,8.2,20.8,26.68,26.68,0,0,0,39.6,0Z"/><path class="cls-1" d="M838.19,470.5h-17.4c11.6,7.4,17.4,17.2,17.4,29a35.54,35.54,0,0,1-5.8,19.4,48.88,48.88,0,0,1-16.19,15c12.59,6,18.79,14.6,18.79,26,0,10.6-4.6,19-13.6,25.4-9.19,6.6-21.4,9.8-36.4,9.8-13.79,0-25.39-3.2-34.59-9.4s-14.2-14.4-15.2-24.6h26.59c1,3.4,3.6,6,7.81,8,4.19,2.2,9.4,3.2,15.39,3.2,7.21,0,13-1.2,17.4-3.8,4.21-2.6,6.4-5.8,6.4-10,0-3.8-2.19-7-6.4-9.4q-6.6-3.6-17.4-3.6c-14.6,0-27.2-4.8-37.39-14.2Q732,517.2,732,497.1c0-13.4,5.2-25,15.6-34.4,10.19-9.4,22.79-14,37.39-14h53.2Zm-71.8,44c5,5,11.21,7.4,18.6,7.4a25.93,25.93,0,0,0,18.8-7.4,23.33,23.33,0,0,0,7.6-17.4c0-6.8-2.6-12.6-7.6-17.6a26.6,26.6,0,0,0-18.8-7.2,25.83,25.83,0,0,0-18.6,7.2c-5.19,5-7.79,10.8-7.79,17.6A22.85,22.85,0,0,0,766.39,514.5Z"/><path class="cls-2" d="M493.7,595.73a15.6,15.6,0,0,1,11-26.6,16.08,16.08,0,0,1,11.2,4.6,15.45,15.45,0,0,1,0,22,16.08,16.08,0,0,1-11.2,4.6A15.27,15.27,0,0,1,493.7,595.73Z"/></svg>